<svg width="357" height="404" viewBox="0 0 357 404" fill="none" xmlns="http://www.w3.org/2000/svg">
<path d="M83.3618 132.335H14.9999V370.918C14.9999 377.418 19.5733 382.651 25.2542 382.651H83.3618V132.335Z" stroke="#4D4D4D" stroke-width="29.9998"/>
<path d="M117.543 93.2235H336.301V26.7334C336.301 20.233 331.728 14.9999 326.047 14.9999H117.543V93.2235Z" stroke="#4D4D4D" stroke-width="29.9998"/>
<path d="M83.3618 14.9999H25.2542C19.5733 14.9999 14.9999 20.233 14.9999 26.7334V93.2235H83.3618V14.9999Z" stroke="#4D4D4D" stroke-width="29.9998"/>
<path d="M171.928 386.074L132.099 340.635L171.928 295.196" stroke="#DDE105" stroke-width="35" stroke-linecap="round"/>
<path d="M259.875 194.565L299.585 148.99L339.295 194.565" stroke="#DDE105" stroke-width="35" stroke-linecap="round"/>
<path d="M299.596 148.99V278.06C299.596 312.728 275.204 340.641 244.904 340.641H132.106" stroke="#DDE105" stroke-width="35" stroke-linecap="round"/>
</svg>
